<svg xmlns="http://www.w3.org/2000/svg" viewBox="0 0 1200 400" preserveAspectRatio="none">
  <!-- Background -->
  <rect width="1200" height="400" fill="#87CEEB" />

  <!-- Back layer -->
  <polygon points="0,400 100,250 200,300 300,220 400,280 500,200 600,260 700,180 800,240 900,160 1000,220 1100,140 1200,200" fill="#4A5568" />
  
  <!-- Mid layer -->
  <polygon points="0,400 120,300 240,350 360,280 480,320 600,260 720,310 840,250 960,300 1080,240 1200,280" fill="#3C4756" />
  
  <!-- Front layer -->
  <polygon points="0,400 80,320 160,370 240,310 320,350 400,290 480,330 560,270 640,310 720,250 800,290 880,230 960,270 1040,210 1120,250 1200,200" fill="#2D3748" />
</svg>
