<svg xmlns="http://www.w3.org/2000/svg" viewBox="0 0 1200 400" preserveAspectRatio="none">
  <!-- Background -->
  <rect width="1200" height="400" fill="#87CEEB" />

  <!-- Back layer -->
  <polygon points="0,0 100,150 200,100 300,180 400,120 500,200 600,140 700,220 800,160 900,240 1000,180 1100,260 1200,200" fill="#4A5568" />
  
  <!-- Mid layer -->
  <polygon points="0,0 120,100 240,50 360,120 480,80 600,140 720,90 840,150 960,110 1080,170 1200,130" fill="#3C4756" />
  
  <!-- Front layer -->
  <polygon points="0,0 80,80 160,30 240,90 320,50 400,110 480,70 560,130 640,90 720,150 800,110 880,170 960,130 1040,190 1120,150 1200,200" fill="#2D3748" />
</svg>
