<svg xmlns="http://www.w3.org/2000/svg" viewBox="0 0 1200 400" preserveAspectRatio="none">
  <!-- Background -->
  <rect width="1200" height="400" fill="#87CEEB" />

  <!-- Back layer -->
  <polygon points="0,400 50,350 100,370 150,340 200,360 250,330 300,350 350,300 400,330 450,280 500,310 550,260 600,300 650,250 700,290 750,240 800,280 850,230 900,270 950,220 1000,260 1050,210 1100,250 1150,200 1200,240" fill="#4A5568" />
  
  <!-- Mid layer -->
  <polygon points="0,400 40,340 80,370 120,320 160,350 200,300 240,330 280,280 320,310 360,260 400,290 440,240 480,270 520,220 560,250 600,200 640,230 680,180 720,210 760,160 800,190 840,140 880,170 920,120 960,150 1000,100 1040,130 1080,80 1120,110 1160,60 1200,90" fill="#3C4756" />
  
  <!-- Front layer -->
  <polygon points="0,400 30,370 60,390 90,360 120,380 150,350 180,370 210,340 240,360 270,330 300,350 330,320 360,340 390,310 420,330 450,300 480,320 510,290 540,310 570,280 600,300 630,270 660,290 690,260 720,280 750,250 780,270 810,240 840,260 870,230 900,250 930,220 960,240 990,210 1020,230 1050,200 1080,220 1110,190 1140,210 1170,180 1200,200" fill="#2D3748" />
</svg>
