<svg xmlns="http://www.w3.org/2000/svg" viewBox="0 0 1200 400" preserveAspectRatio="none">
  <!-- Background -->
  <rect width="1200" height="400" fill="#87CEEB" />

  <!-- Back layer -->
  <polygon points="0,0 50,50 100,30 150,60 200,40 250,70 300,50 350,80 400,60 450,90 500,70 550,100 600,80 650,110 700,90 750,120 800,100 850,130 900,110 950,140 1000,120 1050,150 1100,130 1150,160 1200,140" fill="#4A5568" />
  
  <!-- Mid layer -->
  <polygon points="0,0 40,60 80,30 120,80 160,50 200,100 240,70 280,120 320,90 360,140 400,110 440,160 480,130 520,180 560,150 600,200 640,170 680,220 720,190 760,240 800,210 840,260 880,230 920,280 960,250 1000,300 1040,270 1080,320 1120,290 1160,340 1200,310" fill="#3C4756" />
  
  <!-- Front layer -->
  <polygon points="0,0 30,30 60,10 90,40 120,20 150,50 180,30 210,60 240,40 270,70 300,50 330,80 360,60 390,90 420,70 450,100 480,80 510,110 540,90 570,120 600,100 630,130 660,110 690,140 720,120 750,150 780,130 810,160 840,140 870,170 900,150 930,180 960,160 990,190 1020,170 1050,200 1080,180 1110,210 1140,190 1170,220 1200,200" fill="#2D3748" />
</svg>